<?xml version="1.0" encoding="utf-8"?>
<svg viewBox="0 0 62 62" xmlns="http://www.w3.org/2000/svg" fill="currentColor">
  <g>
    <path d="M59,1H3C1.9,1,1,1.9,1,3v56c0,1.1,0.9,2,2,2h56c1.1,0,2-0.9,2-2V3C61,1.9,60.1,1,59,1z M55,3h4v4h-4V3z
       M7,59H3v-4h4V59z M7,53H3V9h4V53z M7,7H3V3h4V7z M53,59H9v-4h44V59z M53,53H9V9h44V53z M53,7H9V3h44V7z M55,59v-4h4v-2h-4V9h4 l0,50H55z"/>
    <circle cx="5" cy="5" r="1"/>
    <circle cx="57" cy="5" r="1"/>
    <circle cx="57" cy="57" r="1"/>
    <circle cx="5" cy="57" r="1"/>
    <path d="M17,35h10v10c0,0.6,0.4,1,1,1h6c0.6,0,1-0.4,1-1V35h10c0.6,0,1-0.4,1-1v-6c0-0.6-0.4-1-1-1H35V17
      c0-0.6-0.4-1-1-1h-6c-0.6,0-1,0.4-1,1v10H17c-0.6,0-1,0.4-1,1v6C16,34.6,16.4,35,17,35z M18,29h10c0.6,0,1-0.4,1-1V18h4v10
      c0,0.6,0.4,1,1,1h10v4H34c-0.6,0-1,0.4-1,1v10h-4V34c0-0.6-0.4-1-1-1H18V29z"/>
  </g>
</svg>
