<?xml version="1.0" encoding="utf-8"?>
<svg viewBox="0 0 62 52" xmlns="http://www.w3.org/2000/svg" fill="currentColor">
  <g>
    <path d="M57.5,34H46V18h11.5c1.9,0,3.5-1.6,3.5-3.5c0-1.9-1.6-3.5-3.5-3.5H46V5c0-2.2-1.8-4-4-4c-2.2,0-4,1.8-4,4v1
      H22c-6.1,0-11,4.9-11,11v2H8c-0.6,0-1,0.4-1,1v2H2c-0.6,0-1,0.4-1,1v6c0,0.6,0.4,1,1,1h5v2c0,0.6,0.4,1,1,1h3v2c0,6.1,4.9,11,11,11
      h16v1c0,2.2,1.8,4,4,4H42c2.2,0,4-1.8,4-4v-6h11.5c1.9,0,3.5-1.6,3.5-3.5C61,35.6,59.4,34,57.5,34z M57.5,13c0.8,0,1.5,0.7,1.5,1.5
      c0,0.8-0.7,1.5-1.5,1.5H46v-3H57.5z M3,28v-4h5v4H3z M9,31V21h3v10H9z M22,44c-5,0-9-4-9-9V17c0-5,4-9,9-9h17v36H22z M44,47
      c0,1.1-0.9,2-2,2H42c-1.1,0-2-0.9-2-2V5c0-1.1,0.9-2,2-2c1.1,0,2,0.9,2,2V47z M57.5,39H46v-3h11.5c0.8,0,1.5,0.7,1.5,1.5
      C59,38.3,58.3,39,57.5,39z"/>
    <path d="M27,17c-5,0-9,4-9,9s4,9,9,9s9-4,9-9S32,17,27,17z M20,26c0-1.6,0.5-3,1.4-4.2l9.8,9.8
      C30,32.5,28.6,33,27,33C23.1,33,20,29.9,20,26z M32.6,30.2l-9.8-9.8C24,19.5,25.4,19,27,19c3.9,0,7,3.1,7,7
      C34,27.6,33.5,29,32.6,30.2z"/>
  </g>
</svg>

