<?xml version="1.0" encoding="utf-8"?>
<svg xmlns="http://www.w3.org/2000/svg" viewBox="0 0 24 24" fill='currentColor'>
  <path d="M18.4,5.1C16.8,3,14.5,1.7,12,1.7S7.2,3,5.6,5.1C6,5.9,6.5,6.7,7.2,7.4c1.3,1.3,3,2,4.8,2s3.6-0.7,4.8-2 C17.5,6.7,18,5.9,18.4,5.1z"/>
  <path d="M5.1,5.9C5,6.1,4.9,6.2,4.8,6.4C4.7,6.3,4.5,6.2,4.4,6.1C4.3,6,4.2,5.9,4.2,5.7C4.4,5.1,4.2,4.4,3.6,4 C3,3.7,2.2,3.9,1.9,4.5C1.5,5.1,1.7,5.9,2.4,6.3c0.1,0,0.1,0.1,0.2,0.1c0.2,0.3,0.4,0.8,0.7,1C3.5,7.6,3.8,7.8,4.1,8 c-0.4,1.1-0.6,2.3-0.7,3.5c-0.6,0-1,0.1-1.4,0.2c-0.2,0.1-0.4,0.2-0.6,0.3c-0.1,0-0.1,0-0.2,0C0.6,12,0,12.6,0,13.3 c0,0.7,0.6,1.3,1.3,1.3c0.7,0,1.3-0.5,1.3-1.2c0.3-0.1,0.5-0.1,0.9-0.1C3.7,15,4.2,16.6,5,18c-0.8,0.6-1.2,1.2-1.4,1.9 c0,0,0,0-0.1,0.1c-0.1,0-0.1,0.1-0.2,0.1c-0.5,0.5-0.4,1.3,0.1,1.8c0.5,0.5,1.3,0.4,1.8-0.1c0.4-0.5,0.4-1.2,0-1.7 c0.2-0.3,0.3-0.5,0.7-0.8c1.4,1.7,3.4,2.8,5.6,2.9V10.2C8.7,10.1,6.3,8.4,5.1,5.9z"/>
  <path d="M22.7,12c-0.1,0-0.1,0-0.2,0c-0.2-0.1-0.4-0.2-0.6-0.3c-0.4-0.1-0.8-0.2-1.4-0.2c-0.1-1.2-0.3-2.4-0.7-3.5 c0.3-0.2,0.6-0.4,0.8-0.6c0.3-0.3,0.6-0.7,0.7-1c0.1,0,0.1-0.1,0.2-0.1c0.6-0.3,0.8-1.1,0.5-1.8C21.8,3.9,21,3.7,20.4,4 c-0.6,0.3-0.8,1.1-0.5,1.7c-0.1,0.2-0.2,0.3-0.2,0.4c-0.1,0.1-0.3,0.2-0.4,0.3c-0.1-0.2-0.2-0.3-0.3-0.5c-1.2,2.4-3.6,4.1-6.5,4.3 v12.1c2.2-0.1,4.1-1.2,5.6-2.9c0.4,0.3,0.6,0.5,0.7,0.8c-0.4,0.5-0.4,1.2,0,1.7c0.5,0.5,1.3,0.6,1.8,0.1c0.5-0.5,0.6-1.3,0.1-1.8 c0-0.1-0.1-0.1-0.2-0.1c-0.1,0-0.1-0.1-0.1-0.1c-0.2-0.7-0.7-1.4-1.4-1.9c0.8-1.4,1.4-3,1.5-4.8c0.4,0,0.6,0.1,0.9,0.1 c0,0.7,0.6,1.2,1.3,1.2c0.7,0,1.3-0.6,1.3-1.3C24,12.6,23.4,12,22.7,12z"/>
</svg>
