<?xml version="1.0" encoding="utf-8"?>
<svg xmlns="http://www.w3.org/2000/svg" viewBox="0 0 24 24" fill='currentColor'>
  <path d="M20.9,10l-8.8,10.5c-1.8,2.1-4.9,2.4-7,0.6c-2.1-1.8-2.4-4.9-0.6-7l9.2-10.9c1.1-1.3,3-1.5,4.4-0.4 c1.3,1.1,1.5,3,0.4,4.4L9.3,18c-0.4,0.5-1.2,0.6-1.7,0.2c-0.5-0.4-0.6-1.2-0.2-1.7l7.6-9l-1.4-1.2l-7.6,9c-1.1,1.3-0.9,3.3,0.4,4.4 c1.3,1.1,3.3,0.9,4.4-0.4l9.2-10.9c1.8-2.1,1.5-5.2-0.6-7s-5.2-1.5-7,0.6L3.1,12.8C0.7,15.7,1,20,3.9,22.4c2.9,2.4,7.2,2.1,9.6-0.8 l8.8-10.5L20.9,10z"/>
</svg>
