<?xml version="1.0" encoding="utf-8"?>
<svg xmlns="http://www.w3.org/2000/svg" viewBox="0 0 24 24" fill='currentColor'>
	<path d="M8.2,10.7c0.7,0,1.3,0.6,1.3,1.3s-0.6,1.3-1.3,1.3s-1.3-0.6-1.3-1.3S7.5,10.7,8.2,10.7"/>
	<path d="M12,10.7c0.7,0,1.3,0.6,1.3,1.3s-0.6,1.3-1.3,1.3c-0.7,0-1.3-0.6-1.3-1.3S11.4,10.7,12,10.7"/>
	<path d="M15.9,10.7c0.7,0,1.3,0.6,1.3,1.3s-0.6,1.3-1.3,1.3s-1.3-0.6-1.3-1.3S15.2,10.7,15.9,10.7"/>
	<path d="M7.3,19.3c-0.3,0-0.7-0.1-0.9-0.4l-6.1-6c-0.5-0.5-0.5-1.4,0-1.8l6-6c0.5-0.5,1.4-0.5,1.8,0c0.5,0.5,0.5,1.4,0,1.8l-5,5 l5.1,5.1c0.5,0.5,0.5,1.4,0,1.8C8,19.2,7.7,19.3,7.3,19.3"/>
	<path d="M16.8,19.3c0.3,0,0.7-0.1,0.9-0.4l6-6c0.5-0.5,0.5-1.4,0-1.8l-6-6c-0.5-0.5-1.4-0.5-1.8,0s-0.5,1.4,0,1.8l5.1,5.1l-5.1,5.1 c-0.5,0.5-0.5,1.4,0,1.8C16.1,19.2,16.5,19.3,16.8,19.3"/>
</svg>
