<?xml version="1.0" encoding="utf-8"?>
<!-- Generator: Adobe Illustrator 19.1.0, SVG Export Plug-In . SVG Version: 6.00 Build 0)  -->
<svg version="1.1" id="Layer_1" xmlns="http://www.w3.org/2000/svg" xmlns:xlink="http://www.w3.org/1999/xlink" x="0px" y="0px"
	 viewBox="-9 10 90 45" style="enable-background:new -9 10 90 45;" xml:space="preserve">
<g transform="translate(-63.000000, -297.000000)">
	<g transform="translate(45.000000, 40.000000)">
		<g transform="translate(0.000000, 249.000000)">
			<path d="M98.1,18h-4.5c-0.5,0-0.9,0.4-0.9,0.9V54H15.3V18.9c0-0.5-0.4-0.9-0.9-0.9H9.9C9.4,18,9,18.4,9,18.9v43.2
				C9,62.6,9.4,63,9.9,63h88.2c0.5,0,0.9-0.4,0.9-0.9V18.9C99,18.4,98.6,18,98.1,18L98.1,18z M97.2,19.8v36.9h-2.7V19.8H97.2
				L97.2,19.8z M79.2,60.3v0.9h-4.5v-0.9h-6.3v0.9H39.6v-0.9h-6.3v0.9h-4.5v-0.9h-6.3v0.9h-7.2v-2.7h77.4v2.7h-7.2v-0.9H79.2
				L79.2,60.3z M92.7,55.8v0.9H15.3v-0.9H92.7L92.7,55.8z M13.5,19.8v36.9h-2.7V19.8H13.5L13.5,19.8z M10.8,58.5h2.7v2.7h-2.7V58.5
				L10.8,58.5z M94.5,61.2v-2.7h2.7v2.7H94.5L94.5,61.2z"/>
		</g>
	</g>
</g>
</svg>
