<?xml version="1.0" encoding="utf-8"?>
<!-- Generator: Adobe Illustrator 19.1.0, SVG Export Plug-In . SVG Version: 6.00 Build 0)  -->
<svg version="1.1" id="Layer_1" xmlns="http://www.w3.org/2000/svg" xmlns:xlink="http://www.w3.org/1999/xlink" x="0px" y="0px"
	 viewBox="-9 10 90 45" style="enable-background:new -9 10 90 45;" xml:space="preserve">
<g transform="translate(-63.000000, -168.000000)">
	<g transform="translate(45.000000, 40.000000)">
		<g transform="translate(0.000000, 128.000000)">
			<path d="M98.1,10H9.9C9.4,10,9,10.3,9,10.8v43.4C9,54.7,9.4,55,9.9,55h88.2c0.5,0,0.9-0.3,0.9-0.8V10.8C99,10.3,98.6,10,98.1,10
				L98.1,10z M97.2,11.6v2.3h-2.7v-2.3H97.2L97.2,11.6z M79.2,52.7v0.8h-4.5v-0.8h-6.3v0.8H39.6v-0.8h-6.3v0.8h-4.5v-0.8h-6.3v0.8
				h-7.2v-2.3h77.4v2.3h-7.2v-0.8H79.2L79.2,52.7z M15.3,15.4h1.8v34.1h-1.8V15.4L15.3,15.4z M13.5,49.6h-2.7V15.4h2.7V49.6
				L13.5,49.6z M90,49.6h-1.8V15.4H90V49.6L90,49.6z M87.3,49.6h-1.8V15.4h1.8V49.6L87.3,49.6z M84.6,49.6h-1.8V15.4h1.8V49.6
				L84.6,49.6z M81.9,49.6h-1.8V15.4h1.8V49.6L81.9,49.6z M79.2,49.6h-1.8V15.4h1.8V49.6L79.2,49.6z M76.5,49.6h-1.8V15.4h1.8V49.6
				L76.5,49.6z M73.8,49.6H72V15.4h1.8V49.6L73.8,49.6z M71.1,49.6h-1.8V15.4h1.8V49.6L71.1,49.6z M68.4,49.6h-1.8V15.4h1.8V49.6
				L68.4,49.6z M65.7,49.6h-1.8V15.4h1.8V49.6L65.7,49.6z M63,49.6h-1.8V15.4H63V49.6L63,49.6z M60.3,49.6h-1.8V15.4h1.8V49.6
				L60.3,49.6z M57.6,49.6h-1.8V15.4h1.8V49.6L57.6,49.6z M54.9,49.6h-1.8V15.4h1.8V49.6L54.9,49.6z M52.2,49.6h-1.8V15.4h1.8V49.6
				L52.2,49.6z M49.5,49.6h-1.8V15.4h1.8V49.6L49.5,49.6z M46.8,49.6H45V15.4h1.8V49.6L46.8,49.6z M44.1,49.6h-1.8V15.4h1.8V49.6
				L44.1,49.6z M41.4,49.6h-1.8V15.4h1.8V49.6L41.4,49.6z M38.7,49.6h-1.8V15.4h1.8V49.6L38.7,49.6z M36,49.6h-1.8V15.4H36V49.6
				L36,49.6z M33.3,49.6h-1.8V15.4h1.8V49.6L33.3,49.6z M30.6,49.6h-1.8V15.4h1.8V49.6L30.6,49.6z M27.9,49.6h-1.8V15.4h1.8V49.6
				L27.9,49.6z M25.2,49.6h-1.8V15.4h1.8V49.6L25.2,49.6z M22.5,49.6h-1.8V15.4h1.8V49.6L22.5,49.6z M19.8,49.6H18V15.4h1.8V49.6
				L19.8,49.6z M90.9,49.6V15.4h1.8v34.1L90.9,49.6L90.9,49.6z M94.5,15.4h2.7v34.1h-2.7V15.4L94.5,15.4z M92.7,11.6v2.3H15.3v-2.3
				H92.7L92.7,11.6z M13.5,11.6v2.3h-2.7v-2.3H13.5L13.5,11.6z M10.8,51.1h2.7v2.3h-2.7V51.1L10.8,51.1z M94.5,53.4v-2.3h2.7v2.3
				H94.5L94.5,53.4z"/>
		</g>
	</g>
</g>
</svg>
