<?xml version="1.0" encoding="utf-8"?>
<!-- Generator: Adobe Illustrator 19.1.0, SVG Export Plug-In . SVG Version: 6.00 Build 0)  -->
<svg version="1.1" id="Layer_1" xmlns="http://www.w3.org/2000/svg" xmlns:xlink="http://www.w3.org/1999/xlink" x="0px" y="0px"
	 viewBox="-9 10 90 45" style="enable-background:new -9 10 90 45;" xml:space="preserve">
<g transform="translate(-615.000000, -77.000000)">
	<g transform="translate(535.000000, 30.000000)">
		<g transform="translate(79.000000, 47.000000)">
			<path d="M80.6,10H-6.6C-7.6,10-8,10.3-8,11.3v42.4c0,0.9,0.4,1.3,1.4,1.3h87.1c1.1,0,1.4-0.3,1.4-1.3V11.3
				C82,10.3,81.6,10,80.6,10L80.6,10z M80.6,11.3v2.5h-2.9v-2.5H80.6L80.6,11.3z M62.9,52.4v1.3h-4.4v-1.3h-7.4v1.3H23v-1.3h-7.4
				v1.3h-4.4v-1.3H5.2v1.3h-7.4v-2.5h78.6v2.5H69v-1.3H62.9L62.9,52.4z M-2.3,15h1.4v34.9h-1.4V15L-2.3,15z M2,15h1.4v34.9H2V15
				L2,15z M6.3,15h1.4v34.9H6.3V15L6.3,15z M10.5,15H12v34.9h-1.4V15L10.5,15z M14.9,15h1.4v34.9h-1.4V15L14.9,15z M19.2,15h1.4
				v34.9h-1.4V15L19.2,15z M23.4,15h1.4v34.9h-1.4V15L23.4,15z M27.7,15h1.4v34.9h-1.4V15L27.7,15z M32,15h1.4v34.9H32V15L32,15z
				 M36.3,15h1.4v34.9h-1.4V15L36.3,15z M40.6,15H42v34.9h-1.4V15L40.6,15z M44.8,15h1.4v34.9h-1.4L44.8,15L44.8,15z M49.2,15h1.4
				v34.9h-1.4V15L49.2,15z M53.5,15h1.4v34.9h-1.4V15L53.5,15z M57.7,15h1.4v34.9h-1.4V15L57.7,15z M62,15h1.4v34.9H62V15L62,15z
				 M66.3,15h1.4v34.9h-1.4V15L66.3,15z M70.6,15H72v34.9h-1.4V15L70.6,15z M74.9,15h1.4v34.9h-1.4V15L74.9,15z M-3.7,49.9h-2.9V15
				h2.9V49.9L-3.7,49.9z M77.7,15h2.9v34.9h-2.9V15L77.7,15z M76.3,11.3v2.5H-2.2v-2.5H76.3L76.3,11.3z M-3.7,11.3v2.5h-2.9v-2.5
				H-3.7L-3.7,11.3z M-6.6,51.2h2.9v2.5h-2.9V51.2L-6.6,51.2z M77.7,53.7v-2.5h2.9v2.5H77.7L77.7,53.7z"/>
		</g>
	</g>
</g>
</svg>
