<?xml version="1.0" encoding="utf-8"?>
<!-- Generator: Adobe Illustrator 19.1.0, SVG Export Plug-In . SVG Version: 6.00 Build 0)  -->
<svg version="1.1" id="Layer_1" xmlns="http://www.w3.org/2000/svg" xmlns:xlink="http://www.w3.org/1999/xlink" x="0px" y="0px"
	 viewBox="-9 10 90 45" style="enable-background:new -9 10 90 45;" xml:space="preserve">
<style type="text/css">
	.st0{fill:none;}
</style>
<g transform="translate(-611.000000, -78.000000)">
	<g transform="translate(531.000000, 31.000000)">
		<g transform="translate(80.000000, 47.000000)">
			<rect x="-9" y="10" class="st0" width="90" height="44.9"/>
			<path d="M79.6,10H-7.6C-8.6,10-9,10.3-9,11.3v42.4c0,0.9,0.4,1.3,1.4,1.3h87.1c1.1,0,1.4-0.3,1.4-1.3V11.3
				C81,10.3,80.6,10,79.6,10L79.6,10z M79.6,11.3v2.5h-2.8v-2.5H79.6L79.6,11.3z M60.8,52.4v1.3h-4.4v-1.3h-7.3v1.3H21.4v-1.3h-7.3
				v1.3H9.7v-1.3H3.9v1.3h-7.3v-2.5h77.3v2.5h-7.3v-1.3H60.8L60.8,52.4z M-3.4,15H-2v34.9h-1.4V15L-3.4,15z M3.7,15h1.4v34.9H3.7V15
				L3.7,15z M10.7,15h1.4v34.9h-1.4V15L10.7,15z M17.7,15h1.4v34.9h-1.4V15L17.7,15z M24.8,15h1.4v34.9h-1.4V15L24.8,15z M31.8,15
				h1.4v34.9h-1.4V15L31.8,15z M38.8,15h1.4v34.9h-1.4V15L38.8,15z M45.8,15h1.4v34.9h-1.4V15L45.8,15z M52.9,15h1.4v34.9h-1.4V15
				L52.9,15z M59.9,15h1.4v34.9h-1.4V15L59.9,15z M67,15h1.4v34.9H67V15L67,15z M74,15h1.4v34.9H74V15L74,15z M-4.8,49.9h-2.8V15
				h2.8V49.9L-4.8,49.9z M76.8,15h2.8v34.9h-2.8V15L76.8,15z M74,11.3v2.5H-3.3v-2.5H74L74,11.3z M-4.8,11.3v2.5h-2.8v-2.5H-4.8
				L-4.8,11.3z M-7.6,51.2h2.8v2.5h-2.8V51.2L-7.6,51.2z M76.8,53.7v-2.5h2.8v2.5H76.8L76.8,53.7z"/>
		</g>
	</g>
</g>
</svg>
