<?xml version="1.0" encoding="utf-8"?>
<!-- Generator: Adobe Illustrator 19.1.0, SVG Export Plug-In . SVG Version: 6.00 Build 0)  -->
<svg version="1.1" id="Layer_1" xmlns="http://www.w3.org/2000/svg" xmlns:xlink="http://www.w3.org/1999/xlink" x="0px" y="0px"
	 viewBox="-9 10 90 45" style="enable-background:new -9 10 90 45;" xml:space="preserve">
<g transform="translate(-63.000000, -416.000000)">
	<g transform="translate(45.000000, 40.000000)">
		<g transform="translate(0.425580, 364.000000)">
			<path d="M97.7,22H9.5c-0.5,0-0.9,0.4-0.9,1v43c0,0.6,0.4,1,0.9,1h88.2c0.5,0,0.9-0.4,0.9-1V23C98.6,22.4,98.2,22,97.7,22L97.7,22
				z M96.8,60.2h-2.7V24h2.7V60.2L96.8,60.2z M92.3,24v36.2h-1.8V24H92.3L92.3,24z M78.8,64.1v1h-4.5v-1H68v1H39.2v-1h-6.3v1h-4.5
				v-1h-6.3v1h-7.2v-2.9h77.4v2.9h-7.2v-1H78.8L78.8,64.1z M89.6,24v36.2h-1.8V24H89.6L89.6,24z M86.9,24v36.2h-1.8V24H86.9L86.9,24
				z M84.2,24v36.2h-1.8V24H84.2L84.2,24z M81.5,24v36.2h-1.8V24H81.5L81.5,24z M78.8,24v36.2H77V24H78.8L78.8,24z M76.1,24v36.2
				h-1.8V24H76.1L76.1,24z M73.4,24v36.2h-1.8V24H73.4L73.4,24z M70.7,24v36.2h-1.8V24H70.7L70.7,24z M68,24v36.2h-1.8V24H68L68,24z
				 M65.3,24v36.2h-1.8V24H65.3L65.3,24z M62.6,24v36.2h-1.8V24H62.6L62.6,24z M59.9,24v36.2h-1.8V24H59.9L59.9,24z M57.2,24v36.2
				h-1.8V24H57.2L57.2,24z M54.5,24v36.2h-1.8V24H54.5L54.5,24z M51.8,24v36.2H50V24H51.8L51.8,24z M49.1,24v36.2h-1.8V24H49.1
				L49.1,24z M46.4,24v36.2h-1.8V24H46.4L46.4,24z M43.7,24v36.2h-1.8V24H43.7L43.7,24z M41,24v36.2h-1.8V24H41L41,24z M38.3,24
				v36.2h-1.8V24H38.3L38.3,24z M35.6,24v36.2h-1.8V24H35.6L35.6,24z M32.9,24v36.2h-1.8V24H32.9L32.9,24z M30.2,24v36.2h-1.8V24
				H30.2L30.2,24z M27.5,24v36.2h-1.8V24H27.5L27.5,24z M24.8,24v36.2H23V24H24.8L24.8,24z M22.1,24v36.2h-1.8V24H22.1L22.1,24z
				 M19.4,24v36.2h-1.8V24H19.4L19.4,24z M16.7,60.2h-1.8V24h1.8V60.2L16.7,60.2z M13.1,24v36.2h-2.7V24H13.1L13.1,24z M10.4,62.1
				h2.7V65h-2.7V62.1L10.4,62.1z M94.1,65v-2.9h2.7V65H94.1L94.1,65z"/>
		</g>
	</g>
</g>
</svg>
