<?xml version="1.0" encoding="utf-8"?>
<!-- Generator: Adobe Illustrator 19.1.0, SVG Export Plug-In . SVG Version: 6.00 Build 0)  -->
<svg version="1.1" id="Layer_1" xmlns="http://www.w3.org/2000/svg" xmlns:xlink="http://www.w3.org/1999/xlink" x="0px" y="0px"
	 viewBox="-9 10 90 45" style="enable-background:new -9 10 90 45;" xml:space="preserve">
<path d="M81,13.9L81,13.9v-3.1c0-0.5-0.4-0.8-0.9-0.8H-8.1C-8.6,10-9,10.3-9,10.8v43.4c0,0.5,0.4,0.8,0.9,0.8h88.2
	c0.5,0,0.9-0.3,0.9-0.8V15.4V13.9L81,13.9z M79.2,11.6v2.3h-2.7v-2.3H79.2L79.2,11.6z M61.2,52.7v0.8h-4.5v-0.8h-6.3v0.8H21.6v-0.8
	h-6.3v0.8h-4.5v-0.8H4.5v0.8h-7.2v-2.4h45h32.4v2.3h-7.2v-0.7H61.2L61.2,52.7z M74.7,49.6H44.1V15.5h30.6V49.6L74.7,49.6z
	 M42.3,49.6h-1.8V15.5h1.8V49.6L42.3,49.6z M39.6,49.6h-1.8V15.5h1.8V49.6L39.6,49.6z M36.9,49.6h-1.8V15.5h1.8V49.6L36.9,49.6z
	 M34.2,49.6h-1.8V15.5h1.8V49.6L34.2,49.6z M31.5,49.6h-1.8V15.5h1.8V49.6L31.5,49.6z M28.8,49.6H27V15.5h1.8V49.6L28.8,49.6z
	 M26.1,49.6h-1.8V15.5h1.8V49.6L26.1,49.6z M23.4,49.6h-1.8V15.5h1.8V49.6L23.4,49.6z M20.7,49.6h-1.8V15.5h1.8V49.6L20.7,49.6z
	 M18,49.6h-1.8V15.5H18V49.6L18,49.6z M15.3,49.6h-1.8V15.5h1.8V49.6L15.3,49.6z M12.6,49.6h-1.8V15.5h1.8V49.6L12.6,49.6z
	 M9.9,49.6H8.1V15.5h1.8V49.6L9.9,49.6z M7.2,49.6H5.4V15.5h1.8V49.6L7.2,49.6z M4.5,49.6H2.7V15.5h1.8V49.6L4.5,49.6z M1.8,49.6H0
	V15.5h1.8V49.6L1.8,49.6z M-0.9,49.6h-1.8V15.5h1.8V49.6L-0.9,49.6z M74.7,11.6v2.3H42.3h-45v-2.3H74.7L74.7,11.6z M-4.5,11.6v2.3
	h-2.7v1.6h2.7v34.1h-2.7v-38H-4.5L-4.5,11.6z M-7.2,51.1h2.7v2.3h-2.7V51.1L-7.2,51.1z M76.5,53.4v-2.3h2.7v2.3H76.5L76.5,53.4z
	 M79.2,49.6h-2.7V15.5h2.7V49.6L79.2,49.6z"/>
<path d="M49.4,39.6l2.7-1.7l0.2,2.8l2-0.2L54,36.7l4.4-2.9V39l-3.3,1.7l0.9,1.8l2.4-1.2V44h2v-2.7l2.4,1.2l0.9-1.8L60.4,39v-5.2
	l4.4,2.8l-0.2,3.8l2,0.2l0.2-2.8l2.6,1.6l1-1.7L67.7,36l2.3-1.5l-1.2-1.7l-3,2.1L61.2,32l4.6-3l3.1,2l1.1-1.7l-2.3-1.5l2.7-1.7
	l-1-1.7l-2.7,1.7l-0.2-2.8l-2,0.2l0.3,3.8l-4.4,2.9V25l3.3-1.7l-0.9-1.8l-2.4,1.2V20h-2v2.7L56,21.5l-0.9,1.8l3.3,1.7v5.2L54,27.4
	l0.2-3.8l-2-0.2L52,26.2l-2.6-1.6l-1,1.7l2.7,1.7l-2.3,1.5l1.2,1.7l3-2.1l4.6,2.9L53,35l-3.1-2l-1.1,1.7l2.3,1.5l-2.7,1.7L49.4,39.6
	z"/>
</svg>
