<?xml version="1.0" encoding="utf-8"?>
<!-- Generator: Adobe Illustrator 19.1.0, SVG Export Plug-In . SVG Version: 6.00 Build 0)  -->
<svg version="1.1" id="Layer_1" xmlns="http://www.w3.org/2000/svg" xmlns:xlink="http://www.w3.org/1999/xlink" x="0px" y="0px"
	 viewBox="-9 10 90 45" style="enable-background:new -9 10 90 45;" xml:space="preserve">
<g transform="translate(-63.000000, -48.000000)">
	<g transform="translate(45.000000, 40.000000)">
		<g transform="translate(0.000000, 0.500000)">
			<path d="M98.1,17.5H9.9c-0.5,0-0.9,0.4-0.9,0.9v43.2c0,0.5,0.4,0.9,0.9,0.9h88.2c0.5,0,0.9-0.4,0.9-0.9V18.4
				C99,17.9,98.6,17.5,98.1,17.5L98.1,17.5z M97.2,19.3V22h-2.7v-2.7H97.2L97.2,19.3z M79.2,59.8v0.9h-4.5v-0.9h-6.3v0.9H39.6v-0.9
				h-6.3v0.9h-4.5v-0.9h-6.3v0.9h-7.2V58h77.4v2.7h-7.2v-0.9H79.2L79.2,59.8z M15.3,23.8h1.8v32.4h-1.8V23.8L15.3,23.8z M13.5,56.2
				h-2.7V23.8h2.7V56.2L13.5,56.2z M90,56.2h-1.8V23.8H90V56.2L90,56.2z M87.3,56.2h-1.8V23.8h1.8V56.2L87.3,56.2z M84.6,56.2h-1.8
				V23.8h1.8V56.2L84.6,56.2z M81.9,56.2h-1.8V23.8h1.8V56.2L81.9,56.2z M79.2,56.2h-1.8V23.8h1.8V56.2L79.2,56.2z M76.5,56.2h-1.8
				V23.8h1.8V56.2L76.5,56.2z M73.8,56.2H72V23.8h1.8V56.2L73.8,56.2z M71.1,56.2h-1.8V23.8h1.8V56.2L71.1,56.2z M68.4,56.2h-1.8
				V23.8h1.8V56.2L68.4,56.2z M65.7,56.2h-1.8V23.8h1.8V56.2L65.7,56.2z M63,56.2h-1.8V23.8H63V56.2L63,56.2z M60.3,56.2h-1.8V23.8
				h1.8V56.2L60.3,56.2z M57.6,56.2h-1.8V23.8h1.8V56.2L57.6,56.2z M54.9,56.2h-1.8V23.8h1.8V56.2L54.9,56.2z M52.2,56.2h-1.8V23.8
				h1.8V56.2L52.2,56.2z M49.5,56.2h-1.8V23.8h1.8V56.2L49.5,56.2z M46.8,56.2H45V23.8h1.8V56.2L46.8,56.2z M44.1,56.2h-1.8V23.8
				h1.8V56.2L44.1,56.2z M41.4,56.2h-1.8V23.8h1.8V56.2L41.4,56.2z M38.7,56.2h-1.8V23.8h1.8V56.2L38.7,56.2z M36,56.2h-1.8V23.8H36
				V56.2L36,56.2z M33.3,56.2h-1.8V23.8h1.8V56.2L33.3,56.2z M30.6,56.2h-1.8V23.8h1.8V56.2L30.6,56.2z M27.9,56.2h-1.8V23.8h1.8
				V56.2L27.9,56.2z M25.2,56.2h-1.8V23.8h1.8V56.2L25.2,56.2z M22.5,56.2h-1.8V23.8h1.8V56.2L22.5,56.2z M19.8,56.2H18V23.8h1.8
				V56.2L19.8,56.2z M90.9,56.2V23.8h1.8v32.4H90.9L90.9,56.2z M94.5,23.8h2.7v32.4h-2.7V23.8L94.5,23.8z M92.7,19.3V22H15.3v-2.7
				H92.7L92.7,19.3z M13.5,19.3V22h-2.7v-2.7H13.5L13.5,19.3z M10.8,58h2.7v2.7h-2.7V58L10.8,58z M94.5,60.7V58h2.7v2.7H94.5
				L94.5,60.7z"/>
		</g>
	</g>
</g>
</svg>
