<?xml version="1.0" encoding="utf-8"?>
<!-- Generator: Adobe Illustrator 19.1.0, SVG Export Plug-In . SVG Version: 6.00 Build 0)  -->
<svg version="1.1" id="Layer_1" xmlns="http://www.w3.org/2000/svg" xmlns:xlink="http://www.w3.org/1999/xlink" x="0px" y="0px"
	 viewBox="-9 10 90 45" style="enable-background:new -9 10 90 45;" xml:space="preserve">
<g transform="translate(-662.000000, -39.000000)">
	<g transform="translate(535.000000, 30.000000)">
		<g transform="translate(123.000000, 0.500000)">
			<path d="M-3.5,18.5C-4.6,18.5-5,18.9-5,20v42c0,1.1,0.4,1.5,1.5,1.5h86.9c1.2,0,1.5-0.4,1.5-1.5V20c0-1.1-0.4-1.5-1.5-1.5H-3.5z
				 M83.4,20.2v3.5h-3v-3.5H83.4L83.4,20.2z M65.4,60v1.7h-4.5V60h-6v1.7H24.9V60H19v1.7h-4.5V60h-6v1.7H1v-3.5h78v3.5h-7.6V60H65.4
				L65.4,60z M1,25.4h1.5v31.2H1V25.4L1,25.4z M5.5,25.4H7v31.2H5.5V25.4L5.5,25.4z M10,25.4h1.5v31.2H10V25.4L10,25.4z M14.5,25.4
				H16v31.2h-1.5V25.4L14.5,25.4z M19,25.4h1.5v31.2H19V25.4L19,25.4z M23.5,25.4H25v31.2h-1.5V25.4L23.5,25.4z M28,25.4h1.5v31.2
				H28V25.4L28,25.4z M32.5,25.4H34v31.2h-1.5V25.4L32.5,25.4z M37,25.4h1.5v31.2H37V25.4L37,25.4z M41.5,25.4H43v31.2h-1.5V25.4
				L41.5,25.4z M46,25.4h1.5v31.2H46V25.4L46,25.4z M50.5,25.4H52v31.2h-1.5V25.4L50.5,25.4z M55,25.4h1.5v31.2H55V25.4L55,25.4z
				 M59.5,25.4H61v31.2h-1.5V25.4L59.5,25.4z M64,25.4h1.5v31.2H64V25.4L64,25.4z M68.5,25.4H70v31.2h-1.5V25.4L68.5,25.4z M73,25.4
				h1.5v31.2H73V25.4L73,25.4z M77.4,25.4H79v31.2h-1.5V25.4L77.4,25.4z M-0.5,56.6h-3V25.4h3V56.6L-0.5,56.6z M80.4,25.4h3v31.2h-3
				V25.4L80.4,25.4z M78.9,20.2v3.5h-78v-3.5H78.9L78.9,20.2z M-0.5,20.2v3.5h-3v-3.5H-0.5L-0.5,20.2z M-3.5,58.3h3v3.5h-3V58.3
				L-3.5,58.3z M80.4,61.8v-3.5h3v3.5H80.4L80.4,61.8z"/>
		</g>
	</g>
</g>
</svg>
