<?xml version="1.0" encoding="utf-8"?>
<!-- Generator: Adobe Illustrator 19.1.0, SVG Export Plug-In . SVG Version: 6.00 Build 0)  -->
<svg version="1.1" id="Layer_1" xmlns="http://www.w3.org/2000/svg" xmlns:xlink="http://www.w3.org/1999/xlink" x="0px" y="0px"
	 viewBox="-9 10 90 45" style="enable-background:new -9 10 90 45;" xml:space="preserve">
<g transform="translate(-613.000000, -40.000000)">
	<g transform="translate(531.000000, 31.000000)">
		<g transform="translate(79.000000, 0.000000)">
			<path d="M-4.5,19C-5.6,19-6,19.4-6,20.5v42c0,1.1,0.4,1.5,1.5,1.5h86.9c1.2,0,1.5-0.4,1.5-1.5v-42c0-1.1-0.4-1.5-1.5-1.5H-4.5z
				 M82.5,20.7v3.5h-3v-3.5H82.5L82.5,20.7z M64.8,60.5v1.7h-4.4v-1.7h-5.9v1.7H23.5v-1.7h-5.9v1.7h-4.4v-1.7H7.2v1.7h-7.4v-3.5H78
				v3.5h-7.4v-1.7h-7.4H64.8z M-0.1,25.9h1.4v31.2h-1.4V25.9L-0.1,25.9z M5.8,25.9h1.4v31.2H5.8V25.9L5.8,25.9z M11.7,25.9h1.4v31.2
				h-1.4V25.9L11.7,25.9z M17.6,25.9H19v31.2h-1.4V25.9L17.6,25.9z M23.5,25.9h1.4v31.2h-1.4V25.9L23.5,25.9z M29.3,25.9h1.5v31.2
				h-1.4L29.3,25.9L29.3,25.9z M35.3,25.9h1.4v31.2h-1.4V25.9L35.3,25.9z M41.2,25.9h1.4v31.2h-1.4V25.9L41.2,25.9z M47,25.9h1.4
				v31.2H47V25.9L47,25.9z M53,25.9h1.4v31.2H53V25.9L53,25.9z M58.8,25.9h1.4v31.2h-1.4V25.9L58.8,25.9z M64.8,25.9h1.4v31.2h-1.4
				V25.9L64.8,25.9z M70.6,25.9H72v31.2h-1.4V25.9L70.6,25.9z M76.5,25.9H78v31.2h-1.4V25.9L76.5,25.9z M-1.6,57.1h-3V25.9h3V57.1
				L-1.6,57.1z M79.5,25.9h3v31.2h-3V25.9L79.5,25.9z M78,20.7v3.5H-0.2v-3.5H78L78,20.7z M-1.6,20.7v3.5h-3v-3.5H-1.6L-1.6,20.7z
				 M-4.6,58.8h3v3.5h-3V58.8L-4.6,58.8z M79.5,62.3v-3.5h3v3.5H79.5L79.5,62.3z"/>
		</g>
	</g>
</g>
</svg>
