<?xml version="1.0" encoding="utf-8"?>
<!-- Generator: Adobe Illustrator 19.1.0, SVG Export Plug-In . SVG Version: 6.00 Build 0)  -->
<svg version="1.1" id="Layer_1" xmlns="http://www.w3.org/2000/svg" xmlns:xlink="http://www.w3.org/1999/xlink" x="0px" y="0px"
	 viewBox="-9 10 90 45" style="enable-background:new -9 10 90 45;" xml:space="preserve">
<g transform="translate(-63.000000, -913.000000)">
	<g transform="translate(45.000000, 40.000000)">
		<g transform="translate(0.000000, 867.000000)">
			<path d="M69.3,22.1v-1.7h-2.7v1.7h-2.7v-3.5h1.8V16H42.3v2.6h1.8v3.5h-2.7v-1.7h-2.7v1.7H9V61h90V22.1H69.3L69.3,22.1z
				 M45.9,18.6h16.2v3.5H45.9V18.6L45.9,18.6z M10.8,23.8h3.6c-1.4,0.9-2.7,2.1-3.6,3.5V23.8L10.8,23.8z M10.8,59.3v-3.5
				c0.9,1.5,2.2,2.7,3.6,3.5H10.8L10.8,59.3z M18.9,59.1c-4.6-0.8-8.1-2.9-8.1-7.7v-18c0-4.8,3.5-8.7,8.1-9.4V59.1L18.9,59.1z
				 M31.5,59.3H20.7V23.8h10.8V59.3L31.5,59.3z M47.7,59.3H33.3V23.8h14.4V59.3L47.7,59.3z M58.5,59.3h-9v-2.6h9V59.3L58.5,59.3z
				 M58.5,55.8h-9v-0.9h9V55.8L58.5,55.8z M58.5,54.1h-9v-0.9h9V54.1L58.5,54.1z M58.5,52.3h-9v-0.9h9V52.3L58.5,52.3z M58.5,50.6
				h-9v-0.9h9V50.6L58.5,50.6z M58.5,48.9h-9V48h9V48.9L58.5,48.9z M58.5,47.2h-9v-0.9h9V47.2L58.5,47.2z M58.5,45.4h-9v-0.9h9V45.4
				L58.5,45.4z M58.5,43.7h-9v-0.9h9V43.7L58.5,43.7z M58.5,42h-9v-0.9h9V42L58.5,42z M58.5,40.2h-9v-0.9h9V40.2L58.5,40.2z
				 M58.5,38.5h-9v-0.9h9V38.5L58.5,38.5z M58.5,36.8h-9v-0.9h9V36.8L58.5,36.8z M58.5,35h-9v-0.9h9V35L58.5,35z M58.5,33.3h-9v-0.9
				h9V33.3L58.5,33.3z M58.5,31.6h-9v-0.9h9V31.6L58.5,31.6z M58.5,29.8h-9V29h9V29.8L58.5,29.8z M58.5,28.1h-9v-0.9h9V28.1
				L58.5,28.1z M58.5,26.4h-9v-2.6h9V26.4L58.5,26.4z M74.7,59.3H60.3V23.8h14.4V59.3L74.7,59.3z M87.3,59.3H76.5V23.8h10.8V59.3
				L87.3,59.3z M97.2,59.3h-3.6c1.4-0.9,2.7-2.1,3.6-3.5V59.3L97.2,59.3z M97.2,51.4c0,4.8-3.5,6.9-8.1,7.7V24
				c4.6,0.8,8.1,4.7,8.1,9.4V51.4L97.2,51.4z M97.2,27.3c-0.9-1.5-2.2-2.7-3.6-3.5h3.6V27.3L97.2,27.3z"/>
		</g>
	</g>
</g>
</svg>
