<?xml version="1.0" encoding="utf-8"?>
<!-- Generator: Adobe Illustrator 19.1.0, SVG Export Plug-In . SVG Version: 6.00 Build 0)  -->
<svg version="1.1" id="Layer_1" xmlns="http://www.w3.org/2000/svg" xmlns:xlink="http://www.w3.org/1999/xlink" x="0px" y="0px"
	 viewBox="-9 10 90 45" style="enable-background:new -9 10 90 45;" xml:space="preserve">
<g>
	<g>
		<path d="M59.8,46.9c0.4,0.1,0.9,0.1,1.3,0.1c1.6,0,3.1-0.6,4.2-1.8c1.1-1.1,1.8-2.6,1.8-4.2c0-1.7-0.7-3.3-2-4.4V21
			c0-1.7-1.4-3-3.3-3h-1.5c-1.9,0-3.3,1.3-3.3,3v15.6c-1.6,1.4-2.3,3.5-1.9,5.6C55.6,44.5,57.5,46.4,59.8,46.9L59.8,46.9z
			 M58.7,37.8c0.3-0.2,0.4-0.5,0.4-0.8V27h3v-1h-3v-1h3v-1h-3v-1h3v-1h-3v-1c0-0.7,0.7-1,1.3-1h1.5c0.2,0,1.3,0,1.3,1v16
			c0,0.3,0.1,0.6,0.4,0.8c1,0.8,1.6,1.9,1.6,3.2c0,1.1-0.4,2.1-1.2,2.8c-1,1-2.3,1.4-3.7,1.1c-1.5-0.3-2.8-1.6-3.1-3.2
			C56.9,40.2,57.5,38.8,58.7,37.8L58.7,37.8z"/>
		<path d="M61.1,43c1.1,0,2-0.9,2-2c0-0.7-0.4-1.4-1-1.7V29h-2v10.3c-0.6,0.3-1,1-1,1.7C59.1,42.1,60,43,61.1,43L61.1,43z"/>
	</g>
	<path d="M80.1,10H-8.1C-8.6,10-9,10.4-9,10.9v43.2c0,0.5,0.4,0.9,0.9,0.9h88.2c0.5,0,0.9-0.4,0.9-0.9V10.9C81,10.4,80.6,10,80.1,10
		L80.1,10z M79.2,11.8v2.7h-2.7v-2.7H79.2L79.2,11.8z M61.2,52.3v0.9h-4.5v-0.9h-6.3v0.9H21.6v-0.9h-6.3v0.9h-4.5v-0.9H4.5v0.9h-7.2
		v-2.7H45h29.7v2.7h-7.2v-0.9H61.2L61.2,52.3z M-2.7,16.3h1.8v32.4h-1.8V16.3L-2.7,16.3z M-4.5,48.7h-2.7V16.3h2.7V48.7L-4.5,48.7z
		 M74.7,48.7H46.8V16.3h27.9V48.7L74.7,48.7z M45,48.7h-1.8V16.3H45V48.7L45,48.7z M42.3,48.7h-1.8V16.3h1.8V48.7L42.3,48.7z
		 M39.6,48.7h-1.8V16.3h1.8V48.7L39.6,48.7z M36.9,48.7h-1.8V16.3h1.8V48.7L36.9,48.7z M34.2,48.7h-1.8V16.3h1.8V48.7L34.2,48.7z
		 M31.5,48.7h-1.8V16.3h1.8V48.7L31.5,48.7z M28.8,48.7H27V16.3h1.8V48.7L28.8,48.7z M26.1,48.7h-1.8V16.3h1.8V48.7L26.1,48.7z
		 M23.4,48.7h-1.8V16.3h1.8V48.7L23.4,48.7z M20.7,48.7h-1.8V16.3h1.8V48.7L20.7,48.7z M18,48.7h-1.8V16.3H18V48.7L18,48.7z
		 M15.3,48.7h-1.8V16.3h1.8V48.7L15.3,48.7z M12.6,48.7h-1.8V16.3h1.8V48.7L12.6,48.7z M9.9,48.7H8.1V16.3h1.8V48.7L9.9,48.7z
		 M7.2,48.7H5.4V16.3h1.8V48.7L7.2,48.7z M4.5,48.7H2.7V16.3h1.8V48.7L4.5,48.7z M1.8,48.7H0V16.3h1.8V48.7L1.8,48.7z M76.5,16.3
		h2.7v32.4h-2.7V16.3L76.5,16.3z M74.7,11.8v2.7H-2.7v-2.7H74.7L74.7,11.8z M-4.5,11.8v2.7h-2.7v-2.7H-4.5L-4.5,11.8z M-7.2,50.5
		h2.7v2.7h-2.7V50.5L-7.2,50.5z M76.5,53.2v-2.7h2.7v2.7H76.5L76.5,53.2z"/>
</g>
</svg>
