<?xml version="1.0" encoding="utf-8"?>
<!-- Generator: Adobe Illustrator 19.1.0, SVG Export Plug-In . SVG Version: 6.00 Build 0)  -->
<svg version="1.1" id="Layer_1" xmlns="http://www.w3.org/2000/svg" xmlns:xlink="http://www.w3.org/1999/xlink" x="0px" y="0px"
	 viewBox="55 -14.9 25 15.8" style="enable-background:new 55 -14.9 25 15.8;" xml:space="preserve">
<style type="text/css">
	.st0{fill:#D64747;}
</style>
<g>
	<g>
		<path class="st0" d="M71.5-3.6c0.2,0,0.3-0.1,0.3-0.3v-10.6c0-0.2-0.1-0.3-0.3-0.3H55.3c-0.2,0-0.3,0.2-0.3,0.3v10.7
			c0,0.2,0.1,0.3,0.3,0.3L71.5-3.6L71.5-3.6z M55.5-4.2v-0.6h15.7v0.6H55.5z M69.4-5.4v-8.9H70v9L69.4-5.4L69.4-5.4z M68.9-5.4h-0.7
			v-8.9h0.7V-5.4z M67.7-5.4h-0.7v-8.9h0.7V-5.4z M66.6-5.4h-0.7v-8.9h0.7V-5.4z M65.5-5.4h-0.7v-8.9h0.7V-5.4z M64.3-5.4h-0.7v-8.9
			h0.7V-5.4z M63.2-5.4h-0.7v-8.9h0.7V-5.4z M62-5.4h-0.7v-8.9H62V-5.4z M60.9-5.4h-0.7v-8.9h0.7V-5.4z M59.7-5.4h-0.7v-8.9h0.7
			V-5.4z M58.6-5.4h-0.7v-8.9h0.7V-5.4z M57.4-5.4h-0.7v-8.9h0.7V-5.4z M71.2-5.4h-0.8v-8.9h0.8V-5.4z M56.3-14.3v9h-0.8v-9H56.3z"
			/>
		<path class="st0" d="M77.1-8.5h-2.9c-0.1,0-0.2,0.1-0.2,0.2v2.9c0,0.1,0.1,0.2,0.2,0.2h4.1l0,0c0.1,0,0.2-0.1,0.2-0.2
			c0,0,0-0.1,0-0.1l-1.1-2.9C77.3-8.5,77.2-8.5,77.1-8.5z M74.4-5.6v-2.5H77l1,2.5H74.4z"/>
		<path class="st0" d="M61.7-3.1c-1.1,0-2,0.9-2,2s0.9,2,2,2s2-0.9,2-2C63.6-2.2,62.8-3.1,61.7-3.1z M61.7,0.3
			c-0.8,0-1.4-0.6-1.4-1.4c0-0.8,0.6-1.4,1.4-1.4c0.7,0,1.4,0.6,1.4,1.4C63.1-0.3,62.5,0.3,61.7,0.3z"/>
		<path class="st0" d="M61.7-1.9c-0.4,0-0.8,0.4-0.8,0.8s0.4,0.8,0.8,0.8s0.8-0.4,0.8-0.8C62.5-1.5,62.1-1.9,61.7-1.9z M61.7-0.6
			c-0.3,0-0.5-0.2-0.5-0.5c0-0.3,0.2-0.5,0.5-0.5c0.3,0,0.5,0.2,0.5,0.5C62.2-0.8,62-0.6,61.7-0.6z"/>
		<path class="st0" d="M57.2-3.1c-1.1,0-2,0.9-2,2s0.9,2,2,2s2-0.9,2-2S58.3-3.1,57.2-3.1z M57.2,0.3c-0.8,0-1.4-0.6-1.4-1.4
			c0-0.8,0.6-1.4,1.4-1.4c0.8,0,1.4,0.6,1.4,1.4C58.6-0.3,58,0.3,57.2,0.3z"/>
		<path class="st0" d="M57.2-1.9c-0.4,0-0.8,0.4-0.8,0.8s0.4,0.8,0.8,0.8S58-0.7,58-1.1S57.7-1.9,57.2-1.9z M57.2-0.6
			c-0.3,0-0.5-0.2-0.5-0.5c0-0.3,0.2-0.5,0.5-0.5c0.3,0,0.5,0.2,0.5,0.5C57.7-0.8,57.5-0.6,57.2-0.6z"/>
		<path class="st0" d="M76.2-1.9c-0.4,0-0.8,0.4-0.8,0.8s0.4,0.8,0.8,0.8c0.4,0,0.8-0.4,0.8-0.8C77-1.5,76.6-1.9,76.2-1.9z
			 M76.2-0.6c-0.3,0-0.5-0.2-0.5-0.5c0-0.3,0.2-0.5,0.5-0.5c0.3,0,0.5,0.2,0.5,0.5C76.7-0.8,76.5-0.6,76.2-0.6z"/>
		<path class="st0" d="M67.3-1.9c-0.4,0-0.8,0.4-0.8,0.8s0.4,0.8,0.8,0.8s0.8-0.4,0.8-0.8S67.7-1.9,67.3-1.9z M67.3-0.6
			c-0.3,0-0.5-0.2-0.5-0.5c0-0.3,0.2-0.5,0.5-0.5c0.3,0,0.5,0.2,0.5,0.5S67.6-0.6,67.3-0.6z"/>
		<path class="st0" d="M79.9-5.1l-1.8-4.3c0-0.1-0.1-0.2-0.3-0.2h-4.7c-0.2,0-0.3,0.1-0.3,0.3v6.7h-4.2c-0.3-0.3-0.8-0.5-1.2-0.5
			c-1.1,0-2,0.9-2,2s0.9,2,2,2c0.9,0,1.7-0.6,1.9-1.4h5.1c0.2,0.8,1,1.4,1.9,1.4c0.9,0,1.7-0.7,1.9-1.5l1.6-0.2
			C79.9-0.9,80-1,80-1.1v-3.6C80-4.9,80-5,79.9-5.1z M67.3,0.3c-0.8,0-1.4-0.6-1.4-1.4c0-0.8,0.6-1.4,1.4-1.4c0.8,0,1.4,0.6,1.4,1.4
			C68.7-0.3,68.1,0.3,67.3,0.3z M76.2,0.3c-0.8,0-1.4-0.6-1.4-1.4c0-0.8,0.6-1.4,1.4-1.4s1.4,0.6,1.4,1.4C77.6-0.3,77,0.3,76.2,0.3z
			 M79.4-1.4l-1.3,0.1c-0.1-1-0.9-1.8-2-1.8c-1.1,0-1.9,0.8-2,1.9h-4.9c0-0.3-0.1-0.6-0.2-0.9h4.1c0.2,0,0.3-0.1,0.3-0.3V-9h4.3
			l1.8,4.3L79.4-1.4L79.4-1.4z"/>
	</g>
</g>
</svg>
