<?xml version="1.0" encoding="utf-8"?>
<!-- Generator: Adobe Illustrator 17.1.0, SVG Export Plug-In . SVG Version: 6.00 Build 0)  -->
<!DOCTYPE svg PUBLIC "-//W3C//DTD SVG 1.1//EN" "http://www.w3.org/Graphics/SVG/1.1/DTD/svg11.dtd">
<svg version="1.1" id="Layer_1" xmlns="http://www.w3.org/2000/svg" xmlns:xlink="http://www.w3.org/1999/xlink" x="0px" y="0px"
	 viewBox="0 0 76.1 87" enable-background="new 0 0 76.1 87" xml:space="preserve">
<g>
	<path fill="#D64747" d="M9.3,19.3h57.8c0.5,0,1-0.4,1-1v-10c0-0.5-0.4-1-1-1H9.3c-0.5,0.1-1,0.5-1,1v10C8.4,19,8.8,19.3,9.3,19.3z
		 M10.1,9.3h56v8.2h-56V9.3z"/>
	<path fill="#D64747" d="M75.5,7.4l-6.8-6.9C68.4,0.2,68.2,0,67.8,0H3.2c-1.7,0-3,1.3-3,3v76c0,0.4,0.1,0.6,0.4,0.8l7,6.8
		C7.9,86.9,8.1,87,8.5,87h64.3c1.7,0,3-1.3,3-3V8.2C75.8,7.9,75.7,7.6,75.5,7.4z M3.2,2.4h64.1l6.1,6.2v14.8H2.6V3
		C2.6,2.6,2.9,2.4,3.2,2.4z M9.1,47.2h13.6v10.3H9.1V47.2z M23.8,47.2h14.1v10.3H23.8V47.2z M37.8,25.5v9H23.8v-9H37.8z M37.8,35.7
		V46H23.8V35.7H37.8z M67.3,57.4h-13V47.2h13C67.3,47.2,67.3,57.4,67.3,57.4z M53.1,57.4H39V47.2h14.1V57.4z M37.8,58.6v10.3H23.8
		V58.6H37.8z M39,58.6h14.1v10.3H39V58.6z M54.3,58.6h13v10.3h-13V58.6z M67.3,46h-13V35.7h13C67.3,35.7,67.3,46,67.3,46z M53.1,46
		H39V35.7h14.1V46z M39,34.5v-9h14.1v9H39z M22.6,25.5v9H9.1v-9H22.6z M22.6,35.7V46H9.1V35.7H22.6z M22.6,58.6v10.3H9.1V58.6H22.6z
		 M9.1,70.1h13.6v8.4h-8.2l-5.4-5.6V70.1z M23.8,70.1h14.1v8.4H23.8V70.1z M39,70.1h14.1v8.4H39V70.1z M54.3,70.1h13v2.7L62,78.4
		h-7.6C54.3,78.4,54.3,70.1,54.3,70.1z M67.3,34.5h-13v-9h13C67.3,25.5,67.3,34.5,67.3,34.5z M72.9,84.6H9.1l-6.4-6.2V25.5h5.1v47.3
		c0,0.4,0.1,0.6,0.4,0.8l5.4,5.6c0.2,0.2,0.5,0.4,0.8,0.4h47.5c0.4,0,0.6-0.1,0.8-0.4l5.4-5.6c0.2-0.2,0.4-0.5,0.4-0.8V25.5h4.9V84
		C73.4,84.4,73.2,84.6,72.9,84.6z"/>
</g>
</svg>
