<?xml version="1.0" encoding="utf-8"?>
<!-- Generator: Adobe Illustrator 17.1.0, SVG Export Plug-In . SVG Version: 6.00 Build 0)  -->
<!DOCTYPE svg PUBLIC "-//W3C//DTD SVG 1.1//EN" "http://www.w3.org/Graphics/SVG/1.1/DTD/svg11.dtd">
<svg version="1.1" id="Layer_1" xmlns="http://www.w3.org/2000/svg" xmlns:xlink="http://www.w3.org/1999/xlink" x="0px" y="0px"
	 viewBox="0 0 84.9 86.8" enable-background="new 0 0 84.9 86.8" xml:space="preserve">
<g>
	
		<rect x="15.5" y="37.3" transform="matrix(0.6894 -0.7244 0.7244 0.6894 -18.5559 32.3275)" fill="#D64747" width="25.9" height="1"/>
	
		<rect x="20.6" y="42.1" transform="matrix(0.6894 -0.7244 0.7244 0.6894 -20.4833 37.5183)" fill="#D64747" width="25.9" height="1"/>
	
		<rect x="25.7" y="47" transform="matrix(0.6894 -0.7244 0.7244 0.6894 -22.4106 42.7098)" fill="#D64747" width="25.9" height="1"/>
	
		<rect x="30.7" y="51.8" transform="matrix(0.6894 -0.7244 0.7244 0.6894 -24.3375 47.8988)" fill="#D64747" width="25.9" height="1"/>
	
		<rect x="35.8" y="56.7" transform="matrix(0.6893 -0.7244 0.7244 0.6893 -26.2649 53.093)" fill="#D64747" width="25.9" height="1"/>
	
		<rect x="40.9" y="61.5" transform="matrix(0.6893 -0.7244 0.7244 0.6893 -28.1923 58.2841)" fill="#D64747" width="25.9" height="1"/>
	<path fill="#D64747" d="M84.7,10c0.1-0.1,0.2-0.3,0.2-0.4c0-0.2-0.1-0.3-0.2-0.4l-4.8-4.5c-0.2-0.2-0.6-0.2-0.8,0l-12.4,13
		L63.3,5.3c-0.1-0.3-0.4-0.4-0.6-0.3L50.4,8.3l-4.8-8c-0.2-0.4-0.7-0.5-1-0.3L0.4,26.4c-0.2,0.1-0.3,0.3-0.3,0.5
		c0,0.2,0,0.4,0.1,0.6l9,15l-4.5,4.7c-0.4,0.4-0.4,1,0,1.4l19,18l7.8,13.1c0.1,0.2,0.3,0.3,0.5,0.3c0.1,0,0.2,0,0.3-0.1l3.3-1.9
		l8.9,8.5c0.2,0.2,0.4,0.3,0.7,0.3c0.3,0,0.5-0.1,0.7-0.3l16.4-17.2l16.9-4.7c0.3-0.1,0.4-0.3,0.3-0.6l-2.8-10l0.4-0.4
		c0.4-0.4,0.4-1,0-1.4l-1.1-1.1l-6.8-24.8L84.7,10z M58.6,35.7l-1.7-1.6l22.8-23.9l1.7,1.6L58.6,35.7z M63.1,32.7l8.6,14.5L60,36
		L63.1,32.7z M54.3,33l3.4,3.2l-3.2,1.4l-1.3-1.3L54.3,33z M79.5,5.9l3.9,3.7L82.1,11l-3.9-3.7L79.5,5.9z M79.1,9.6L56.3,33.5
		L54.7,32L77.5,8.1L79.1,9.6z M62.5,6l3.5,12.5l-5.8,6.1L50.9,9.2L62.5,6z M1.8,27.4L44.7,1.8l14.3,24l-4.6,4.9L37.2,14.4
		c-0.4-0.4-1-0.4-1.4,0l-25.7,27L1.8,27.4z M32.1,78.6L27,69.9l7.6,7.2L32.1,78.6z M45.1,84.4L6.7,47.9l4.1-4.3c0,0,0,0,0.1-0.1
		l25.7-27l16.5,15.7c0,0-0.1,0.1-0.1,0.1l-2.9,7.9c-0.1,0.3,0.2,0.6,0.5,0.5l7.7-3.3c0,0,0.1-0.1,0.1-0.1L75,53L45.1,84.4z
		 M78.4,63.8l-14.8,4.1l12.4-13L78.4,63.8z M74.1,48.1l-9.9-16.6l4.1-4.3L74.1,48.1z"/>
</g>
</svg>
