<?xml version="1.0" encoding="utf-8"?>
<svg version="1.1" xmlns="http://www.w3.org/2000/svg" viewBox="0 0 85.3 66" fill="currentColor">
  <g>
    <path d="M8,50c-4.4,0-8,3.6-8,8s3.6,8,8,8s8-3.6,8-8S12.5,50,8,50z M8,63.5c-3,0-5.5-2.5-5.5-5.5 c0-3,2.5-5.5,5.5-5.5s5.5,2.5,5.5,5.5C13.5,61,11.1,63.5,8,63.5z"/>
    <path d="M8,54.9c-1.7,0-3.1,1.4-3.1,3.1c0,1.7,1.4,3.1,3.1,3.1s3.1-1.4,3.1-3.1C11.1,56.3,9.7,54.9,8,54.9z M8,60.1 c-1.2,0-2.1-0.9-2.1-2.1s0.9-2.1,2.1-2.1s2.1,0.9,2.1,2.1S9.2,60.1,8,60.1z"/>
    <path d="M71.9,50c-4.4,0-8,3.6-8,8s3.6,8,8,8c4.4,0,8-3.6,8-8S76.3,50,71.9,50z M71.9,63.5c-3,0-5.5-2.5-5.5-5.5 c0-3,2.5-5.5,5.5-5.5c3,0,5.5,2.5,5.5,5.5C77.4,61,74.9,63.5,71.9,63.5z"/>
    <path d="M71.9,54.9c-1.7,0-3.1,1.4-3.1,3.1c0,1.7,1.4,3.1,3.1,3.1c1.7,0,3.1-1.4,3.1-3.1 C75,56.3,73.6,54.9,71.9,54.9z M71.9,60.1c-1.2,0-2.1-0.9-2.1-2.1s0.9-2.1,2.1-2.1S74,56.8,74,58S73,60.1,71.9,60.1z"/>
    <path d="M70.7,48.1h0.9c0.7,0,1.3-0.6,1.3-1.3c0-0.7-0.6-1.3-1.3-1.3h-0.9H55.8h-0.2L42.8,17l16.9-6 c0.2-0.1,0.4-0.2,0.6-0.4l9.2-3.2l1.3,3.6c-0.1,0-0.1,0.1-0.2,0.2l-1.9,2.7l0,0h-7c-0.4,0-0.8,0.3-0.8,0.8v2.7 c0,0.4,0.3,0.8,0.8,0.8h22.6c0.4,0,0.8-0.3,0.8-0.8v-2.7c0-0.4-0.3-0.8-0.8-0.8h-7.1l0,0l-1.9-2.7c-0.1-0.1-0.2-0.2-0.4-0.3
    L71.1,0.5c-0.1-0.4-0.6-0.6-1-0.4l-2,0.7l0,0l-9.9,3.5c-0.3-0.1-0.5-0.1-0.8,0l-53.9,19c-0.7,0.2-1,0.9-0.8,1.6l1.6,4.4 c0.1,0.3,0.3,0.6,0.6,0.7c0.2,0.1,0.4,0.1,0.5,0.1s0.3,0,0.4-0.1l9.4-3.3l2.9,9.3L1.3,39.8c-0.6,0.1-1,0.6-1,1.2v5.9
    c0,0.7,0.6,1.3,1.3,1.3h12.9l6,12.1c0.2,0.4,0.6,0.7,1.1,0.7h35.2c0.4,0,0.8-0.2,1-0.5L67,48.1H70.7z M57.1,53.2h-2.8L38.8,18.4 l2.5-0.9L57.1,53.2z M29.6,53.2l-1.5-5.1h22.1l2.3,5.1H29.6z M37.2,19l11.9,26.6h-3.4l-5.3-13.7c-0.1-0.4-0.5-0.6-0.9-0.6H29.1
    c-0.6,0-1,0.4-1,1v13.3h-0.7l-6.2-21L37.2,19z M43.6,45.6H30.1V33.3h8.7L43.6,45.6z M60.2,8.5L59.3,6l8.6-3l0.9,2.5L60.2,8.5z M83.5,16.5H62.4v-1.2h21.1V16.5z M75.3,13.8h-4.8l1.1-1.5h2.6L75.3,13.8z M70,1.7l3.3,9.1h-0.9L69.1,2L70,1.7z M5.5,25.2L57,7
    l0.7,2.1L6.2,27.2L5.5,25.2z M19.3,25.3l8.2,28h-1.8L17.2,26L19.3,25.3z M15.3,45.7H2.8V42L19,38.4l4.7,14.9h-3.8l-3.4-6.9 C16.2,45.9,15.8,45.7,15.3,45.7z M56.3,58.5H22.4l-1.6-3.3h37.9L56.3,58.5z M60.1,53.2H59l-2.3-5.1h7.2L60.1,53.2z"/>
    <path d="M84.3,19.6H61.7c-0.6,0-1,0.4-1,1v19.8c0,0.6,0.4,1,1,1h22.6c0.6,0,1-0.4,1-1V20.6 C85.3,20.1,84.8,19.6,84.3,19.6z M83.3,36.8h-1.4V21.6h1.4V36.8z M65.6,36.8V21.6h1.7v15.2H65.6z M68.9,21.6h1.7v15.2h-1.7V21.6z M72.1,21.6h1.7v15.2h-1.7V21.6z M75.4,21.6h1.7v15.2h-1.7V21.6z M78.6,21.6h1.7v15.2h-1.7V21.6z M64.1,21.6v15.2h-1.4V21.6H64.1z M62.7,39.5v-1.1h20.6v1.1H62.7z"/>
  </g>
</svg>
