<?xml version="1.0" encoding="utf-8"?>
<!-- Generator: Adobe Illustrator 19.1.0, SVG Export Plug-In . SVG Version: 6.00 Build 0)  -->
<svg version="1.1" id="Layer_1" xmlns="http://www.w3.org/2000/svg" xmlns:xlink="http://www.w3.org/1999/xlink" x="0px" y="0px"
	 viewBox="-24 -1.3 25 25" style="enable-background:new -24 -1.3 25 25;" xml:space="preserve">
<style type="text/css">
	.st0{fill:#D64747;}
</style>
<g>
	<path class="st0" d="M-3.8,6.2v1.9h-0.3c-0.1,0-0.2,0-0.2,0.1l-0.7,1l0,0h-2.5c-0.1,0-0.3,0.1-0.3,0.3v1c0,0.1,0.1,0.3,0.3,0.3h8.2
		c0.1,0,0.3-0.1,0.3-0.3v-1c0-0.1-0.1-0.3-0.3-0.3h-2.6l0,0l-0.7-1c0-0.1-0.1-0.1-0.2-0.1h-0.3V6.2H0c0.3,0,0.5-0.3,0.5-0.6
		c0-0.3-0.3-0.6-0.5-0.6H0l-11-6.3c0,0-0.1,0-0.2,0c0,0,0,0,0,0h0c0,0,0,0,0,0l-12,6.4h-0.1c-0.3,0-0.5,0.3-0.5,0.6
		c0,0.3,0.3,0.6,0.5,0.6h2.6l-1,16.9c0,0.3,0.2,0.6,0.5,0.6h0c0.3,0,0.5-0.2,0.5-0.5l0.2-3.4h0.6l-0.2,3.2c0,0.2,0.1,0.4,0.3,0.4
		c0,0,0,0,0,0c0.2,0,0.4-0.1,0.4-0.3l0.2-3.3h7.4l0.2,3.3c0,0.2,0.2,0.3,0.4,0.3c0,0,0,0,0,0c0.2,0,0.4-0.2,0.3-0.4l-0.2-3.2h0.7
		l0.2,3.4c0,0.3,0.3,0.5,0.5,0.5h0c0.3,0,0.5-0.3,0.5-0.6l-1-16.9H-3.8z M0.4,10.3h-7.6V9.8h7.6V10.3z M-2.6,9.3h-1.7l0.4-0.6H-3
		L-2.6,9.3z M-12.7,7l-6.4,9.2l0.6-9.9h5.8L-12.7,7z M-19.3,5.1l7.5-5.2l0.3,5.2H-19.3z M-10.6-0.3L-4,5.1h-6.3L-10.6-0.3z
		 M-3.5,5.1l-5.5-4.5l7.7,4.5H-3.5z M-13.9,0.5l-6.7,4.6h-2.1L-13.9,0.5z M-20.6,18.8l0.8-12.6h0.6L-20,18.8H-20.6z M-19.3,18.8
		l0.1-1.2l6.6-9.4l0.7,10.6C-12,18.8-19.3,18.8-19.3,18.8z M-10.6,18.8h-0.7L-12,6.2h0.7L-10.6,18.8z"/>
	<path class="st0" d="M0.6,11.4h-8.2c-0.2,0-0.4,0.1-0.4,0.4v7.3c0,0.2,0.1,0.4,0.4,0.4h8.2c0.2,0,0.4-0.1,0.4-0.4v-7.3
		C1,11.6,0.9,11.4,0.6,11.4z M0.3,17.8h-0.5v-5.6h0.5V17.8z M-6.1,17.8v-5.6h0.6v5.6H-6.1z M-4.9,12.2h0.6v5.6h-0.6V12.2z
		 M-3.7,12.2h0.6v5.6h-0.6V12.2z M-2.6,12.2H-2v5.6h-0.6V12.2z M-1.4,12.2h0.6v5.6h-0.6C-1.4,17.8-1.4,12.2-1.4,12.2z M-6.6,12.2
		v5.6h-0.5v-5.6H-6.6z M-7.2,18.8v-0.4h7.5v0.4H-7.2z"/>
</g>
</svg>
