<?xml version="1.0" encoding="utf-8"?>
<!-- Generator: Adobe Illustrator 17.1.0, SVG Export Plug-In . SVG Version: 6.00 Build 0)  -->
<!DOCTYPE svg PUBLIC "-//W3C//DTD SVG 1.1//EN" "http://www.w3.org/Graphics/SVG/1.1/DTD/svg11.dtd">
<svg version="1.1" id="Layer_1" xmlns="http://www.w3.org/2000/svg" xmlns:xlink="http://www.w3.org/1999/xlink" x="0px" y="0px"
	 viewBox="0 0 66.2 85.2" enable-background="new 0 0 66.2 85.2" xml:space="preserve">
<g>
	<path fill="#D64747" d="M65.7,7.1H49.4V4.9c0-0.6-0.4-1-1-1h-8.6l-0.7-3.1C39,0.3,38.6,0,38.1,0H28.1c-0.5,0-0.9,0.3-1,0.8
		l-0.7,3.1h-8.6c-0.6,0-1,0.4-1,1v2.2H0.5C0.2,7.1,0,7.3,0,7.6v77.1c0,0.3,0.2,0.5,0.5,0.5h65.2c0.3,0,0.5-0.2,0.5-0.5V7.6
		C66.2,7.3,66,7.1,65.7,7.1z M18.7,5.9h8.4c0.5,0,0.9-0.3,1-0.8L28.8,2h8.5l0.7,3.1c0.1,0.4,0.5,0.8,1,0.8h8.4v7.9H18.7V5.9z
		 M48.4,15.8c0.6,0,1-0.4,1-1v-2.6h11.5v67.9H5.3V12.2h11.5v2.6c0,0.6,0.4,1,1,1H48.4z M65.2,84.2H1V8.1h15.7v2.5H4.4
		c-0.5,0-0.9,0.4-0.9,0.9V81c0,0.5,0.4,0.8,0.9,0.8h57.4c0.5,0,0.8-0.4,0.8-0.8V11.4c0-0.5-0.4-0.9-0.8-0.9H49.4V8.1h15.7V84.2z"/>
	<rect x="21.2" y="24.1" fill="#D64747" width="27.4" height="1.5"/>
	<rect x="17.6" y="24.1" fill="#D64747" width="1.6" height="1.5"/>
	<rect x="21.2" y="41.9" fill="#D64747" width="27.4" height="1.5"/>
	<rect x="17.6" y="41.9" fill="#D64747" width="1.6" height="1.5"/>
	<rect x="21.2" y="50.8" fill="#D64747" width="27.4" height="1.5"/>
	<rect x="17.6" y="50.8" fill="#D64747" width="1.6" height="1.5"/>
	<rect x="21.2" y="59.7" fill="#D64747" width="27.4" height="1.5"/>
	<rect x="17.6" y="59.7" fill="#D64747" width="1.6" height="1.5"/>
	<rect x="21.2" y="68.6" fill="#D64747" width="27.4" height="1.5"/>
	<rect x="17.6" y="68.6" fill="#D64747" width="1.6" height="1.5"/>
	<rect x="21.2" y="33" fill="#D64747" width="27.4" height="1.5"/>
	<rect x="17.6" y="33" fill="#D64747" width="1.6" height="1.5"/>
</g>
</svg>
