<?xml version="1.0" encoding="utf-8"?>
<!-- Generator: Adobe Illustrator 19.1.0, SVG Export Plug-In . SVG Version: 6.00 Build 0)  -->
<svg version="1.1" id="Layer_1" xmlns="http://www.w3.org/2000/svg" xmlns:xlink="http://www.w3.org/1999/xlink" x="0px" y="0px"
	 viewBox="55 -19.5 25 25" style="enable-background:new 55 -19.5 25 25;" xml:space="preserve">
<style type="text/css">
	.st0{fill:#D64747;}
</style>
<g>
	<g>
		<path class="st0" d="M79.7-15.3H55.3c-0.2,0-0.3,0.2-0.3,0.3v11.9c0,0.2,0.2,0.3,0.3,0.3h24.3c0.2,0,0.3-0.2,0.3-0.3V-15
			C80-15.1,79.9-15.3,79.7-15.3z M79.4-4.6h-0.8v-10h0.8V-4.6z M57-4.6v-10h0.8v10C57.8-4.6,57-4.6,57-4.6z M58.3-14.6h0.8v10h-0.8
			V-14.6z M59.5-14.6h0.8v10h-0.8V-14.6z M60.8-14.6h0.8v10h-0.8V-14.6z M62.1-14.6h0.8v10h-0.8V-14.6z M63.4-14.6h0.8v10h-0.8
			V-14.6z M64.6-14.6h0.8v10h-0.8V-14.6z M65.9-14.6h0.8v10h-0.8V-14.6z M67.2-14.6h0.8v10h-0.8V-14.6z M68.4-14.6h0.8v10h-0.8
			V-14.6z M69.7-14.6h0.7v10h-0.8L69.7-14.6L69.7-14.6z M71-14.6h0.8v10H71V-14.6z M72.2-14.6H73v10h-0.8V-14.6z M73.5-14.6h0.8v10
			h-0.8V-14.6z M74.8-14.6h0.8v10h-0.8V-14.6z M76-14.6h0.8v10H76V-14.6z M77.3-14.6H78v10h-0.8V-14.6z M56.5-14.6v10h-0.8v-10H56.5
			z M55.7-3.4V-4h23.7v0.7H55.7z"/>
		<path class="st0" d="M62.7-2c-1.1,0-2,0.8-2.2,1.9h-0.8C59.6-1.2,58.7-2,57.6-2c-1.2,0-2.2,1-2.2,2.2s1,2.2,2.2,2.2
			c1.1,0,2-0.8,2.2-1.9h0.8c0.2,1.1,1.1,1.9,2.2,1.9c1.2,0,2.2-1,2.2-2.2S63.9-2,62.7-2z M57.6,1.7c-0.9,0-1.5-0.7-1.5-1.5
			c0-0.9,0.7-1.6,1.5-1.6c0.8,0,1.3,0.5,1.5,1.2h-0.7c-0.1-0.3-0.4-0.5-0.8-0.5c-0.5,0-0.9,0.4-0.9,0.9s0.4,0.9,0.9,0.9
			c0.3,0,0.7-0.2,0.8-0.5h0.7C59,1.2,58.3,1.7,57.6,1.7z M58.2,0.2c0,0.3-0.3,0.6-0.6,0.6c-0.3,0-0.6-0.3-0.6-0.6
			c0-0.3,0.3-0.6,0.6-0.6C57.9-0.5,58.2-0.2,58.2,0.2z M62.7,1.7c-0.8,0-1.3-0.5-1.5-1.2h0.7C62,0.8,62.3,1,62.7,1
			c0.5,0,0.9-0.4,0.9-0.9s-0.4-0.9-0.9-0.9c-0.4,0-0.7,0.2-0.8,0.5h-0.7c0.2-0.7,0.8-1.2,1.5-1.2c0.9,0,1.5,0.7,1.5,1.6
			C64.3,1,63.5,1.7,62.7,1.7z M62.1,0.2c0-0.3,0.3-0.6,0.6-0.6c0.3,0,0.6,0.3,0.6,0.6c0,0.3-0.3,0.6-0.6,0.6
			C62.4,0.7,62.1,0.5,62.1,0.2z"/>
		<path class="st0" d="M77.4-2c-1.1,0-2,0.8-2.2,1.9h-0.8C74.4-1.2,73.5-2,72.4-2c-1.2,0-2.2,1-2.2,2.2s1,2.2,2.2,2.2
			c1.1,0,2-0.8,2.2-1.9h0.8c0.2,1.1,1.1,1.9,2.2,1.9c1.2,0,2.2-1,2.2-2.2S78.7-2,77.4-2z M72.4,1.7c-0.9,0-1.5-0.7-1.5-1.5
			c0-0.9,0.7-1.6,1.5-1.6c0.8,0,1.3,0.5,1.5,1.2h-0.7c-0.1-0.3-0.4-0.5-0.8-0.5c-0.5,0-0.9,0.4-0.9,0.9s0.4,0.9,0.9,0.9
			c0.3,0,0.7-0.2,0.8-0.5h0.7C73.7,1.2,73.1,1.7,72.4,1.7z M73,0.2c0,0.3-0.3,0.6-0.6,0.6s-0.6-0.3-0.6-0.6c0-0.3,0.3-0.6,0.6-0.6
			S73-0.2,73,0.2z M77.4,1.7c-0.8,0-1.3-0.5-1.5-1.2h0.7C76.8,0.8,77.1,1,77.5,1c0.5,0,0.9-0.4,0.9-0.9s-0.4-0.9-0.9-0.9
			c-0.4,0-0.7,0.2-0.8,0.5h-0.7c0.2-0.7,0.8-1.2,1.5-1.2c0.9,0,1.5,0.7,1.5,1.6C79,1,78.3,1.7,77.4,1.7z M76.9,0.2
			c0-0.3,0.3-0.6,0.6-0.6c0.3,0,0.6,0.3,0.6,0.6c0,0.3-0.3,0.6-0.6,0.6C77.1,0.7,76.9,0.5,76.9,0.2z"/>
	</g>
</g>
</svg>
